<svg width="324" height="324" xmlns="http://www.w3.org/2000/svg" xml:space="preserve" enable-background="new 0 0 324 324" version="1.1">

 <g>
  <title>Layer 1</title>
  <path id="svg_2" d="m69.02222,320.97967c-33.69865,1.47062 -55.96836,-20.06011 -62.23372,-42.46963c-1.59445,-5.70294 -2.65245,-11.7663 -2.66907,-17.66769c-0.18484,-65.64632 -0.17292,-131.29345 -0.09268,-196.94018c0.04047,-33.1101 26.67038,-59.82622 59.71681,-59.87201c65.81334,-0.0912 131.62697,-0.09029 197.44031,-0.00044c33.04727,0.04511 59.70578,26.70835 59.76101,59.83971c0.1095,65.64667 0.09488,131.29372 0.00501,196.94044c-0.04608,33.64677 -26.69083,60.1092 -60.48965,60.14692c-63.6474,0.07104 -127.29494,0.022 -191.43802,0.02288m71.51521,-205.01689c16.81746,14.16784 33.63994,28.3297 50.44901,42.50748c4.43983,3.74481 4.33023,4.78157 -0.32598,8.68549c-29.49014,24.72548 -59.01974,49.40495 -88.3398,74.33075c-3.13614,2.66612 -5.70852,6.52836 -7.30924,10.35199c-2.94691,7.03932 1.02987,12.83638 4.83599,18.4264c7.03865,10.33759 18.31629,11.71112 27.82573,3.69236c32.34937,-27.27823 64.78734,-54.45137 97.18912,-81.66744c11.71918,-9.84358 23.43181,-19.69495 35.31782,-29.68597c-1.38055,-1.26862 -2.441,-2.31925 -3.5791,-3.2777c-25.35975,-21.35701 -50.72203,-42.71101 -76.09677,-64.05021c-17.85136,-15.01233 -35.68562,-30.04539 -53.60348,-44.97806c-6.2802,-5.2339 -15.18122,-6.59265 -20.84265,-2.01814c-10.96408,8.85914 -18.86049,23.59946 -2.77806,36.35097c12.52484,9.93075 24.50585,20.54739 37.25741,31.33208z" fill="#5553C1"/>
  <path id="svg_3" d="m140.273,115.72635c-12.48713,-10.54826 -24.46814,-21.1649 -36.99298,-31.09565c-16.08243,-12.75151 -8.18602,-27.49183 2.77806,-36.35097c5.66143,-4.57451 14.56245,-3.21576 20.84265,2.01814c17.91786,14.93267 35.75212,29.96573 53.60348,44.97806c25.37474,21.3392 50.73702,42.6932 76.09677,64.05021c1.1381,0.95845 2.19855,2.00908 3.5791,3.2777c-11.88601,9.99102 -23.59864,19.84239 -35.31782,29.68597c-32.40178,27.21607 -64.83975,54.38921 -97.18912,81.66744c-9.50944,8.01876 -20.78708,6.64523 -27.82573,-3.69236c-3.80612,-5.59002 -7.7829,-11.38708 -4.83599,-18.4264c1.60072,-3.82363 4.1731,-7.68587 7.30924,-10.35199c29.32006,-24.9258 58.84966,-49.60527 88.3398,-74.33075c4.65621,-3.90392 4.76581,-4.94068 0.32598,-8.68549c-16.80907,-14.17778 -33.63155,-28.33964 -50.71344,-42.74391z" fill="#FEFEFF"/>
 </g>
</svg>