<svg width="24" height="24" viewBox="0 0 24 24" fill="none" xmlns="http://www.w3.org/2000/svg">
<path d="M9.88039 0.672852L9.7592 0.746051C9.5666 0.863051 9.3848 0.993251 9.215 1.13605L9.5648 0.890052H12.5336L13.073 4.97905L10.3748 7.67905L7.6766 9.55585V11.7201C7.6766 13.2315 8.4662 14.6331 9.7586 15.4161L12.5996 17.1363L6.5978 20.6397H5.4404L3.2828 19.3329C1.9898 18.5499 1.2002 17.1483 1.2002 15.6369V8.36005C1.2002 6.84805 1.9904 5.44645 3.2828 4.66345L9.7592 0.743651C9.7994 0.719651 9.83959 0.695652 9.88039 0.672852Z" fill="url(#paint0_radial_3326_53963)"/>
<path d="M16.3112 9.2998V11.719C16.3112 13.2304 15.5216 14.632 14.2292 15.415L7.75284 19.3372C6.42804 20.1394 4.77984 20.1688 3.43164 19.4242L9.75744 23.2558C11.132 24.088 12.8546 24.088 14.2286 23.2558L20.705 19.3336C21.9974 18.5512 22.787 17.1496 22.787 15.6376V13.8898L22.2476 13.0798L16.3112 9.2998Z" fill="url(#paint1_radial_3326_53963)"/>
<path opacity="0.05" d="M22.7873 13.8898L22.2479 13.0798L16.3115 9.2998V9.916L20.5493 12.481C21.7169 13.1878 22.4411 14.4244 22.4855 15.7888L22.4909 17.2102C22.4909 17.2102 22.6943 16.6396 22.7279 16.3504C22.7441 16.2106 22.7771 15.7888 22.7771 15.7888C22.7789 15.7378 22.7867 15.6886 22.7867 15.6376L22.7873 13.8898Z" fill="black"/>
<path opacity="0.07" d="M7.58415 19.0759C6.55335 19.6963 5.30955 19.8211 4.17135 19.4173C4.17015 19.4167 4.16955 19.4168 4.16835 19.4162C3.97995 19.3496 3.81195 19.2763 3.65355 19.1941L3.63915 19.1864L3.61635 19.1773L2.29395 18.5011C2.59875 18.8431 2.95275 19.1444 3.36075 19.3789L3.36975 19.3843L3.49995 19.4527C3.50535 19.4557 3.51135 19.4575 3.51675 19.4599C3.69615 19.5535 3.88095 19.6315 4.06875 19.6981C4.07055 19.6987 4.07235 19.6993 4.07415 19.6999C4.32915 19.7905 4.59135 19.8505 4.85535 19.8919C4.87335 19.8949 4.89135 19.8973 4.90935 19.9009C4.94535 19.9057 4.98135 19.9141 5.01735 19.9183C5.11395 19.9297 5.21055 19.9327 5.30715 19.9375C5.38275 19.9411 5.45775 19.946 5.53335 19.9454C5.62155 19.9448 5.70975 19.9399 5.79795 19.9339C5.88315 19.9285 5.96835 19.9213 6.05355 19.9105C6.13455 19.9003 6.21495 19.8883 6.29535 19.8733C6.38955 19.8559 6.48255 19.8343 6.57555 19.8109C6.64695 19.7929 6.71895 19.7756 6.78975 19.7534C6.89595 19.7204 7.00035 19.6807 7.10415 19.6393C7.16055 19.6171 7.21755 19.5979 7.27335 19.5727C7.43235 19.5019 7.58835 19.4227 7.73955 19.3315L11.9941 16.7671L11.7043 16.5938L7.58415 19.0759Z" fill="black"/>
<path opacity="0.05" d="M4.27118 19.1337L4.25078 19.1265H4.25018C4.08338 19.0665 3.93278 19.0011 3.79178 18.9273L3.77858 18.9207L3.75038 18.9075L2.42978 18.2331L1.87598 17.9499C2.24618 18.5313 2.74898 19.0287 3.36638 19.3821L3.49958 19.4523C3.92918 19.6791 4.38818 19.8195 4.85438 19.8915C5.83838 20.0433 6.86018 19.8609 7.73858 19.3323L11.9932 16.7679L11.4022 16.4121L7.42898 18.8187C6.47558 19.3923 5.32478 19.5075 4.27118 19.1337Z" fill="black"/>
<path d="M20.7046 4.66444L14.2282 0.74464C12.8968 -0.0611606 11.239 -0.0857605 9.88776 0.669639L9.75936 0.74764C8.46636 1.53004 7.67676 2.93224 7.67676 4.44424V9.56584L9.75936 8.30524C11.1334 7.47364 12.8548 7.47364 14.2282 8.30524L20.7046 12.225C21.9568 12.9834 22.7374 14.3226 22.7854 15.78C22.7872 15.7332 22.7878 15.6858 22.7878 15.6384V8.36104C22.7872 6.84904 21.9976 5.44684 20.7046 4.66444Z" fill="url(#paint2_radial_3326_53963)"/>
<path opacity="0.07" d="M7.9754 4.4437C7.9754 3.2401 8.51001 2.1097 9.44301 1.3417C9.44361 1.3411 9.4448 1.3405 9.4454 1.3399C9.5996 1.2133 9.74901 1.1059 9.90141 1.0129L9.9152 1.0045L9.935 0.989502L11.1956 0.204102C10.7456 0.288702 10.3052 0.436902 9.8936 0.666102L9.88401 0.670902L9.758 0.747101C9.7526 0.750101 9.7484 0.754302 9.74301 0.757302C9.57021 0.862902 9.4082 0.981102 9.254 1.1077C9.2528 1.1089 9.2516 1.1101 9.2498 1.1113C9.041 1.2835 8.8538 1.4773 8.6828 1.6825C8.6714 1.6963 8.6594 1.7107 8.6474 1.7245C8.6246 1.7527 8.5988 1.7791 8.5766 1.8079C8.5184 1.8847 8.46561 1.9657 8.41161 2.0461C8.36961 2.1091 8.327 2.1709 8.288 2.2357C8.2424 2.3119 8.20161 2.3899 8.16141 2.4685C8.12181 2.5453 8.084 2.6221 8.0498 2.7001C8.0168 2.7745 7.9856 2.8501 7.9568 2.9263C7.9232 3.0157 7.89381 3.1069 7.86561 3.1987C7.84401 3.2695 7.8224 3.3397 7.8044 3.4117C7.778 3.5197 7.7582 3.6295 7.7396 3.7399C7.7294 3.7999 7.71681 3.8587 7.70901 3.9193C7.68801 4.0921 7.6748 4.2667 7.6748 4.4437V9.5647L7.9748 9.3835L7.9754 4.4437Z" fill="black"/>
<path opacity="0.05" d="M9.63373 1.57251L9.65053 1.55871L9.65113 1.55811C9.78853 1.44591 9.92234 1.35051 10.0579 1.26771L10.0705 1.25991L10.0963 1.24251L11.3551 0.457706L11.8831 0.128906C11.1943 0.146906 10.5091 0.320906 9.88874 0.668306L9.76033 0.746306C9.34453 0.997706 8.98753 1.31871 8.68573 1.68171C8.04793 2.44731 7.67773 3.41691 7.67773 4.44291V9.56451L8.27713 9.20151V4.44291C8.27593 3.32931 8.77093 2.28291 9.63373 1.57251Z" fill="black"/>
<path opacity="0.05" d="M22.1393 15.3299L22.1429 15.3515C22.1693 15.5273 22.1831 15.6911 22.1855 15.8501V15.8645L22.1873 15.8957L22.2209 17.3795L22.2293 17.7611C22.5251 17.1329 22.7495 16.6571 22.7855 15.8135C22.8059 15.3281 22.6877 14.9021 22.5299 14.4569C22.1969 13.5179 21.5513 12.7043 20.6693 12.1817L16.3115 9.56445V10.2971L20.3633 12.6983C21.3209 13.2659 21.9683 14.2253 22.1393 15.3299Z" fill="black"/>
<defs>
<radialGradient id="paint0_radial_3326_53963" cx="0" cy="0" r="1" gradientUnits="userSpaceOnUse" gradientTransform="translate(8.42929 4.79718) rotate(110.517) scale(18.0162 31.4097)">
<stop offset="0.064" stop-color="#AD7FE1"/>
<stop offset="1" stop-color="#0078D3"/>
</radialGradient>
<radialGradient id="paint1_radial_3326_53963" cx="0" cy="0" r="1" gradientUnits="userSpaceOnUse" gradientTransform="translate(4.64896 18.6365) rotate(-8.37205) scale(16.7574 11.0757)">
<stop offset="0.134" stop-color="#D49CFF"/>
<stop offset="1" stop-color="#5E438E"/>
</radialGradient>
<radialGradient id="paint2_radial_3326_53963" cx="0" cy="0" r="1" gradientUnits="userSpaceOnUse" gradientTransform="translate(21.2057 13.4038) rotate(-165.764) scale(13.4508 22.655)">
<stop offset="0.059" stop-color="#50E5FF"/>
<stop offset="1" stop-color="#436DCC"/>
</radialGradient>
</defs>
</svg>
