<svg width="24" height="24" viewBox="0 0 24 24" fill="none" xmlns="http://www.w3.org/2000/svg">
<g opacity="0.2">
<path d="M7.47706 18.2188C7.21334 18.2223 6.95802 18.312 6.75008 18.4742C6.54214 18.6365 6.393 18.8623 6.32545 19.1172C6.2579 19.3722 6.27564 19.6422 6.37596 19.8861C6.47629 20.1301 6.65368 20.3344 6.88106 20.4681L11.1384 22.8814C11.4887 23.0805 11.8848 23.1848 12.2877 23.1841C12.5049 23.1839 12.7209 23.1524 12.9291 23.0907L19.3291 21.2654C19.8072 21.1292 20.2281 20.8412 20.5283 20.4448C20.8284 20.0485 20.9915 19.5653 20.9931 19.0681V18.2201L7.47706 18.2188Z" fill="white"/>
</g>
<g opacity="0.12">
<path d="M7.47706 18.2188C7.21334 18.2223 6.95802 18.312 6.75008 18.4742C6.54214 18.6365 6.393 18.8623 6.32545 19.1172C6.2579 19.3722 6.27564 19.6422 6.37596 19.8861C6.47629 20.1301 6.65368 20.3344 6.88106 20.4681L11.1384 22.8814C11.4887 23.0805 11.8848 23.1848 12.2877 23.1841C12.5049 23.1839 12.7209 23.1524 12.9291 23.0907L19.3291 21.2654C19.8072 21.1292 20.2281 20.8412 20.5283 20.4448C20.8284 20.0485 20.9915 19.5653 20.9931 19.0681V18.2201L7.47706 18.2188Z" fill="white"/>
</g>
<path d="M12.9062 0.757812L14.6262 4.69248V18.3711L12.9369 23.2418L19.3369 21.4178C19.8147 21.2805 20.2349 20.9918 20.5343 20.595C20.8336 20.1982 20.996 19.7149 20.9969 19.2178V4.78315C20.9973 4.28529 20.8355 3.80085 20.536 3.40317C20.2365 3.00549 19.8155 2.71622 19.3369 2.57915L12.9062 0.757812Z" fill="url(#paint0_linear_516_10901)"/>
<path d="M4.78389 18.224L6.65056 17.212C6.90752 17.0709 7.12175 16.8633 7.27073 16.6108C7.41972 16.3584 7.49795 16.0705 7.49723 15.7773V8.41333C7.49785 8.07796 7.60135 7.75086 7.79377 7.47619C7.98619 7.20151 8.25825 6.99249 8.57323 6.87733L14.6172 4.692V3.032C14.617 2.51832 14.4497 2.01864 14.1407 1.60834C13.8316 1.19803 13.3976 0.899345 12.9039 0.757331C12.6932 0.696976 12.475 0.666897 12.2559 0.667998C11.8438 0.669152 11.4388 0.776124 11.0799 0.978665L4.16256 4.92533C3.81182 5.1247 3.52018 5.41346 3.31735 5.7622C3.11452 6.11095 3.00774 6.50722 3.00789 6.91067V17.164C3.00545 17.3735 3.0579 17.58 3.16001 17.7629C3.26213 17.9458 3.41036 18.0988 3.58996 18.2067C3.76956 18.3146 3.97427 18.3735 4.18374 18.3777C4.3932 18.3819 4.60011 18.3312 4.78389 18.2307V18.224Z" fill="url(#paint1_linear_516_10901)"/>
<path d="M14.6225 18.3692H7.47718C7.21051 18.3666 6.95058 18.453 6.73844 18.6146C6.5263 18.7762 6.37404 19.0038 6.3057 19.2616C6.23736 19.5194 6.25683 19.7926 6.36104 20.0381C6.46525 20.2835 6.64826 20.4873 6.88118 20.6172L11.1385 23.0305C11.4887 23.23 11.8848 23.3348 12.2878 23.3345C12.505 23.3343 12.721 23.3029 12.9292 23.2412C13.4181 23.1022 13.8482 22.8072 14.1539 22.4011C14.4596 21.995 14.6241 21.5001 14.6225 20.9919V18.3692Z" fill="url(#paint2_linear_516_10901)"/>
<defs>
<linearGradient id="paint0_linear_516_10901" x1="16.9516" y1="-0.523521" x2="16.9516" y2="21.6685" gradientUnits="userSpaceOnUse">
<stop stop-color="#FFB900"/>
<stop offset="0.17" stop-color="#EF8400"/>
<stop offset="0.31" stop-color="#E25C01"/>
<stop offset="0.43" stop-color="#DB4401"/>
<stop offset="0.5" stop-color="#D83B01"/>
</linearGradient>
<linearGradient id="paint1_linear_516_10901" x1="12.9466" y1="0.261331" x2="1.19589" y2="17.0413" gradientUnits="userSpaceOnUse">
<stop stop-color="#800600"/>
<stop offset="0.6" stop-color="#C72127"/>
<stop offset="0.73" stop-color="#C13959"/>
<stop offset="0.85" stop-color="#BC4B81"/>
<stop offset="0.94" stop-color="#B95799"/>
<stop offset="1" stop-color="#B85BA2"/>
</linearGradient>
<linearGradient id="paint2_linear_516_10901" x1="6.94118" y1="20.8519" x2="22.2825" y2="20.8519" gradientUnits="userSpaceOnUse">
<stop stop-color="#F32B44"/>
<stop offset="0.6" stop-color="#A4070A"/>
</linearGradient>
</defs>
</svg>
