<svg width="2000" height="2000" viewBox="0 0 2000 2000" fill="none" xmlns="http://www.w3.org/2000/svg">
<g clip-path="url(#clip0_3550_1702)">
<path d="M762.664 699.557L762.683 699.489L1182.54 950.976L1432.72 845.694L1432.73 845.736C1483.57 823.758 1538.38 812.446 1593.76 812.5C1602.99 812.5 1612.11 812.919 1621.18 813.524C1591.11 696.238 1527.61 590.213 1438.41 508.333C1349.21 426.453 1238.15 372.244 1118.72 352.293C999.293 332.343 876.642 347.509 765.672 395.95C654.702 444.391 560.19 524.02 493.622 625.161C495.761 625.134 497.867 625 500.011 625C592.801 624.874 683.778 650.699 762.664 699.557V699.557Z" fill="#0364B8"/>
<path d="M762.672 699.489L762.653 699.558C683.767 650.7 592.79 624.875 500 625C497.856 625 495.75 625.135 493.611 625.162C402.792 626.286 313.996 652.137 236.766 699.936C159.536 747.736 96.7907 815.676 55.2732 896.457C13.7558 977.239 -4.96439 1067.81 1.12457 1158.43C7.21353 1249.05 37.8814 1336.3 89.8325 1410.8L460.082 1254.99L624.671 1185.73L991.142 1031.51L1182.52 950.976L762.672 699.489Z" fill="#0078D4"/>
<path d="M1621.17 813.525C1612.1 812.919 1602.98 812.5 1593.75 812.5C1538.36 812.446 1483.56 823.758 1432.72 845.736L1432.71 845.694L1182.53 950.976L1255.07 994.431L1492.88 1136.88L1596.64 1199.02L1951.41 1411.53C1983.64 1351.69 2000.35 1284.71 1999.99 1216.74C1999.64 1148.77 1982.23 1081.97 1949.37 1022.47C1916.51 962.966 1869.25 912.659 1811.91 876.156C1754.57 839.652 1688.99 818.119 1621.17 813.528V813.525Z" fill="#1490DF"/>
<path d="M1596.65 1199.02L1492.89 1136.87L1255.08 994.429L1182.54 950.974L991.153 1031.51L624.682 1185.73L460.094 1254.99L89.8438 1410.8C135.854 1476.95 197.191 1530.98 268.616 1568.28C340.041 1605.58 419.432 1625.04 500.011 1625H1593.76C1667.1 1625.02 1739.07 1605.18 1802.04 1567.6C1865.01 1530.02 1916.63 1476.08 1951.42 1411.52L1596.65 1199.02Z" fill="#28A8EA"/>
</g>
<defs>
<clipPath id="clip0_3550_1702">
<rect width="2000" height="2000" fill="white"/>
</clipPath>
</defs>
</svg>
